<svg width="33" height="35" viewBox="0 0 33 35" fill="none" xmlns="http://www.w3.org/2000/svg">
<g clip-path="url(#clip0_53_348)">
<path fill-rule="evenodd" clip-rule="evenodd" d="M16.5137 0C7.38203 0 0 7.88714 0 17.6446C0 25.4443 4.72992 32.0465 11.2916 34.3833C12.1119 34.559 12.4125 34.0036 12.4125 33.5365C12.4125 33.1274 12.3854 31.7253 12.3854 30.2644C7.79171 31.3163 6.83511 28.1611 6.83511 28.1611C6.09688 26.1161 5.00304 25.5906 5.00304 25.5906C3.49953 24.5097 5.11256 24.5097 5.11256 24.5097C6.78035 24.6265 7.65549 26.3208 7.65549 26.3208C9.13162 29.0082 11.5103 28.2489 12.4672 27.7814C12.6038 26.6421 13.0415 25.8533 13.5063 25.4152C9.84248 25.0062 5.98769 23.4872 5.98769 16.7096C5.98769 14.7816 6.64345 13.2042 7.68253 11.9773C7.51859 11.5393 6.94429 9.72772 7.84681 7.30314C7.84681 7.30314 9.24114 6.83565 12.3851 9.11431C13.7311 8.72808 15.1192 8.5316 16.5137 8.52995C17.908 8.52995 19.3294 8.73465 20.6419 9.11431C23.7862 6.83565 25.1805 7.30314 25.1805 7.30314C26.083 9.72772 25.5084 11.5393 25.3444 11.9773C26.4109 13.2042 27.0396 14.7816 27.0396 16.7096C27.0396 23.4872 23.1848 24.9768 19.4936 25.4152C20.0953 25.9702 20.6145 27.0217 20.6145 28.687C20.6145 31.0531 20.5875 32.9521 20.5875 33.5361C20.5875 34.0036 20.8883 34.559 21.7084 34.3836C28.27 32.0462 32.9999 25.4443 32.9999 17.6446C33.027 7.88714 25.6179 0 16.5137 0Z" fill="black"/>
</g>
<defs>
<clipPath id="clip0_53_348">
<rect width="33" height="35" fill="white"/>
</clipPath>
</defs>
</svg>
