<svg width="35" height="35" viewBox="0 0 35 35" fill="none" xmlns="http://www.w3.org/2000/svg">
<g clip-path="url(#clip0_53_351)">
<path d="M17.4995 14.3181V21.0954H26.9177C26.5041 23.2749 25.263 25.1205 23.4017 26.3614L29.0812 30.7682C32.3903 27.7138 34.2994 23.2274 34.2994 17.8978C34.2994 16.6569 34.1881 15.4637 33.9812 14.3183L17.4995 14.3181Z" fill="black"/>
<path d="M7.69207 20.8309L6.41112 21.8114L1.87695 25.3432C4.75649 31.0545 10.6583 35 17.4992 35C22.2241 35 26.1854 33.4409 29.0809 30.7682L23.4014 26.3614C21.8423 27.4114 19.8536 28.0478 17.4992 28.0478C12.9492 28.0478 9.08341 24.9774 7.69922 20.841L7.69207 20.8309Z" fill="black"/>
<path d="M1.87714 9.6568C0.684019 12.0112 0 14.6681 0 17.4999C0 20.3316 0.684019 22.9885 1.87714 25.343C1.87714 25.3588 7.69996 20.8248 7.69996 20.8248C7.34997 19.7748 7.14309 18.6612 7.14309 17.4997C7.14309 16.3382 7.34997 15.2246 7.69996 14.1746L1.87714 9.6568Z" fill="black"/>
<path d="M17.4995 6.96818C20.0769 6.96818 22.3677 7.85906 24.1973 9.57727L29.2086 4.56597C26.1699 1.7342 22.2246 0 17.4995 0C10.6587 0 4.75649 3.92954 1.87695 9.65683L7.6996 14.175C9.08361 10.0386 12.9496 6.96818 17.4995 6.96818Z" fill="black"/>
</g>
<defs>
<clipPath id="clip0_53_351">
<rect width="35" height="35" fill="white"/>
</clipPath>
</defs>
</svg>
