<svg width="33" height="35" viewBox="0 0 33 35" fill="none" xmlns="http://www.w3.org/2000/svg">
<g clip-path="url(#clip0_53_343)">
<path d="M16.5 3.15137C20.9086 3.15137 21.4307 3.17187 23.1645 3.25391C24.7758 3.3291 25.6459 3.61621 26.226 3.85547C26.993 4.16992 27.5473 4.55273 28.1209 5.16113C28.701 5.77637 29.0555 6.35742 29.352 7.1709C29.5775 7.78613 29.8482 8.71582 29.9191 10.418C29.9965 12.2637 30.0158 12.8174 30.0158 17.4863C30.0158 22.1621 29.9965 22.7158 29.9191 24.5547C29.8482 26.2637 29.5775 27.1865 29.352 27.8018C29.0555 28.6152 28.6945 29.2031 28.1209 29.8115C27.5408 30.4268 26.993 30.8027 26.226 31.1172C25.6459 31.3564 24.7693 31.6436 23.1645 31.7188C21.4242 31.8008 20.9022 31.8213 16.5 31.8213C12.0914 31.8213 11.5693 31.8008 9.83555 31.7188C8.22422 31.6436 7.3541 31.3564 6.77402 31.1172C6.00703 30.8027 5.45273 30.4199 4.8791 29.8115C4.29902 29.1963 3.94453 28.6152 3.64805 27.8018C3.42246 27.1865 3.15176 26.2568 3.08086 24.5547C3.00352 22.709 2.98418 22.1553 2.98418 17.4863C2.98418 12.8105 3.00352 12.2568 3.08086 10.418C3.15176 8.70898 3.42246 7.78613 3.64805 7.1709C3.94453 6.35742 4.30547 5.76953 4.8791 5.16113C5.45918 4.5459 6.00703 4.16992 6.77402 3.85547C7.3541 3.61621 8.23067 3.3291 9.83555 3.25391C11.5693 3.17187 12.0914 3.15137 16.5 3.15137ZM16.5 0C12.0205 0 11.4598 0.0205078 9.7002 0.102539C7.94707 0.18457 6.7418 0.485351 5.69766 0.916016C4.6084 1.36719 3.68672 1.96191 2.77148 2.93945C1.8498 3.91016 1.28906 4.8877 0.863672 6.03613C0.457617 7.15039 0.174023 8.42187 0.0966797 10.2812C0.0193359 12.1543 0 12.749 0 17.5C0 22.251 0.0193359 22.8457 0.0966797 24.7119C0.174023 26.5713 0.457617 27.8496 0.863672 28.957C1.28906 30.1123 1.8498 31.0898 2.77148 32.0605C3.68672 33.0313 4.6084 33.6328 5.69121 34.0771C6.7418 34.5078 7.94063 34.8086 9.69375 34.8906C11.4533 34.9727 12.0141 34.9932 16.4936 34.9932C20.973 34.9932 21.5338 34.9727 23.2934 34.8906C25.0465 34.8086 26.2518 34.5078 27.2959 34.0771C28.3787 33.6328 29.3004 33.0313 30.2156 32.0605C31.1309 31.0898 31.698 30.1123 32.117 28.9639C32.523 27.8496 32.8066 26.5781 32.884 24.7188C32.9613 22.8525 32.9807 22.2578 32.9807 17.5068C32.9807 12.7559 32.9613 12.1611 32.884 10.2949C32.8066 8.43555 32.523 7.15723 32.117 6.0498C31.7109 4.8877 31.1502 3.91016 30.2285 2.93945C29.3133 1.96875 28.3916 1.36719 27.3088 0.922852C26.2582 0.492187 25.0594 0.191406 23.3063 0.109375C21.5402 0.0205078 20.9795 0 16.5 0Z" fill="black"/>
<path d="M16.5 8.51074C11.8207 8.51074 8.02441 12.5371 8.02441 17.5C8.02441 22.4629 11.8207 26.4893 16.5 26.4893C21.1793 26.4893 24.9756 22.4629 24.9756 17.5C24.9756 12.5371 21.1793 8.51074 16.5 8.51074ZM16.5 23.3311C13.4643 23.3311 11.0021 20.7197 11.0021 17.5C11.0021 14.2803 13.4643 11.6689 16.5 11.6689C19.5357 11.6689 21.9979 14.2803 21.9979 17.5C21.9979 20.7197 19.5357 23.3311 16.5 23.3311Z" fill="black"/>
<path d="M27.2895 8.15522C27.2895 9.31733 26.4 10.2539 25.3107 10.2539C24.215 10.2539 23.332 9.31049 23.332 8.15522C23.332 6.9931 24.2215 6.05658 25.3107 6.05658C26.4 6.05658 27.2895 6.99994 27.2895 8.15522Z" fill="black"/>
</g>
<defs>
<clipPath id="clip0_53_343">
<rect width="33" height="35" fill="white"/>
</clipPath>
</defs>
</svg>
