<svg width="1440" height="595" viewBox="0 0 1440 595" fill="none" xmlns="http://www.w3.org/2000/svg">
<path d="M802.409 239.938L670.48 168.554L666.369 322.159V554.996L1182.5 548.269L1389.92 400.644L1359.27 291.139L1289.38 179.019L1045.71 298.24L945.923 322.159L820.348 230.968L802.409 239.938Z" fill="#AAAAAA"/>
<path d="M78.858 82.5954L0 54.1915V473.148V612.177L1107.38 646.561V466.047L707.854 223.493L702.621 226.483V207.797L682.066 192.1V181.635L669.733 167.807L589.38 200.696L238.069 0L180.14 9.34337L78.858 82.5954Z" fill="#AAAAAA"/>
<path d="M682.066 181.635L669.733 167.807L743.732 207.797L702.622 226.483V207.797L682.066 192.1V181.635Z" fill="url(#paint0_linear_43_80)"/>
<path d="M78.858 82.5954L0 54.1915V473.148H470.906L394.664 179.393L325.897 130.06L330.382 92.3125L275.443 60.9188V44.8482L238.069 20.1817V0L180.14 9.34337L78.858 82.5954Z" fill="#AAAAAA"/>
<path d="M837.913 251.15L820.348 230.968L945.175 322.159H882.388L858.842 294.877L852.115 271.705L843.519 267.968L837.913 251.15Z" fill="url(#paint1_linear_43_80)"/>
<path d="M1335.35 194.342L1436.64 274.321V426.058H1398.89L1356.66 287.028L1288.64 177.898L1335.35 194.342Z" fill="url(#paint2_linear_43_80)"/>
<path d="M10.7095 160.332L3.9834 173.047L4.73074 594.523L1439.25 594.149L1440 249.339L1434.39 230.266L1404.88 318.9L1384.7 254.949L1369.38 321.143L1353.31 287.859L1333.88 326.379L1312.58 278.51L1295.39 326.379H1265.5L1227.38 337.599L1214.68 305.062L1202.72 337.599L1182.54 246.721L1167.22 348.818L1151.15 309.176L1133.22 374.249L1113.41 295.713L1098.46 383.972L1079.78 337.599L1067.82 398.183H1039.05L984.869 419.874L965.065 377.614L953.107 439.321L935.544 390.704L922.84 446.053L895.935 395.191L873.141 446.053L839.137 457.272L823.07 416.134L807.375 453.906L795.418 428.476L786.824 446.053L770.382 384.346L762.535 434.833L731.147 414.264L658.281 408.655L644.455 379.484L630.629 401.175L620.914 323.013L609.33 401.175H584.294L574.579 352.932L564.49 396.687H532.727L457.62 362.281L391.854 356.672L369.433 245.225L330.198 322.265L320.109 268.038L302.546 330.493L285.357 275.518L264.432 300.574L246.869 188.006L206.513 293.469L193.061 257.567L174.377 275.518L164.662 201.844L146.352 264.672L138.505 243.73L112.722 293.469L63.0234 282.249L55.1763 222.039L23.4143 271.404L10.7095 160.332Z" fill="#8A8A8A"/>
<path d="M769.95 384.216L759.113 472.904L738.559 435.483L719.126 485.253L609.631 509.577L583.098 448.206L564.413 502.093L540.122 423.883L514.711 496.48L496.025 465.42L478.461 502.093L414.184 498.725L382.42 505.835L359.624 442.967L342.807 502.093L311.416 411.534L271.803 505.835L203.416 502.093L146.613 513.319L4.97925 594.523H1440L1439.63 249.126L1434.02 230.042L1404.5 318.729L1384.32 254.739L1369 320.975L1352.93 287.67L1333.49 326.214L1312.19 278.315L1295 326.214H1265.11L1226.99 337.44L1214.28 304.884L1202.32 337.44L1182.14 246.507L1166.82 348.666L1150.75 309L1132.82 374.113L1113.01 295.528L1098.06 383.842L1079.38 337.44L1067.42 398.062H1038.64L984.456 419.766L964.649 377.481L952.691 439.225L935.127 390.578L922.421 445.961L895.514 395.068L872.718 445.961L838.711 457.187L822.642 416.024L806.947 453.82L794.988 428.373L786.393 445.961L769.95 384.216Z" fill="url(#paint3_linear_43_80)"/>
<defs>
<linearGradient id="paint0_linear_43_80" x1="669.359" y1="156.595" x2="747.47" y2="287.776" gradientUnits="userSpaceOnUse">
<stop stop-color="white"/>
<stop offset="0.485806" stop-color="#BBBBBB"/>
<stop offset="1" stop-color="#AAAAAA"/>
</linearGradient>
<linearGradient id="paint1_linear_43_80" x1="882.761" y1="230.968" x2="893.973" y2="306.089" gradientUnits="userSpaceOnUse">
<stop stop-color="white"/>
<stop offset="1" stop-color="#D9D9D9" stop-opacity="0"/>
</linearGradient>
<linearGradient id="paint2_linear_43_80" x1="1289.01" y1="140.151" x2="1397.39" y2="426.431" gradientUnits="userSpaceOnUse">
<stop stop-color="#AAAAAA"/>
<stop offset="1" stop-color="white"/>
</linearGradient>
<linearGradient id="paint3_linear_43_80" x1="796" y1="475" x2="798" y2="595" gradientUnits="userSpaceOnUse">
<stop stop-color="#747474"/>
<stop offset="1" stop-color="#07202A"/>
</linearGradient>
</defs>
</svg>
